# xmcd
#
# Track frame offsets:
#	150
#	12842
#	28225
#	42275
#	55740
#	68155
#	92250
#
# Disc length: 1450 seconds
#
# Revision: 1
# Processed by: cddbd v1.5.2PL0 Copyright (c) Steve Scherf et al.
# Submitted via: audiograbber 1.83.01
#
DISCID=4e05a807
DTITLE=Various Artist - Rescue Records Volume One
DYEAR=1994
DGENRE=Country
TTITLE0=Brett Barrow - In With the Out Crowd
TTITLE1=Cathy Korpi - From This Side of Your Kiss
TTITLE2=Billy Charles - Can't Stay Down
TTITLE3=Jennifer Johnston - I Never Thought I Could Love This Much
TTITLE4=Scott Kyle King - Little By Little
TTITLE5=Brett Barrow - In With the Out Crowd (Dance Mix)
TTITLE6=Billy Charles - Can't Stay Down (Dance Mix)
EXTD=
EXTT0=
EXTT1=
EXTT2=
EXTT3=
EXTT4=
EXTT5=
EXTT6=
PLAYORDER=
